<svg xmlns="http://www.w3.org/2000/svg" viewBox="0 0 96 16"><title>globjects-logo</title><polygon points="8.982 14.347 12.647 8 11.425 5.884 8.982 10.116 5.318 3.769 15.089 3.769 16.311 1.653 1.654 1.653 8.982 14.347" style="fill:#f29f05"/><polygon points="21.197 14.347 19.975 12.231 15.089 12.231 19.975 3.769 18.754 1.653 11.425 14.347 21.197 14.347" style="fill:#f29f05"/><path d="M23.1806,8.6251a3.47,3.47,0,1,1,6.9048,0,3.4683,3.4683,0,1,1-6.9048,0Zm5.16,0c0-1.4639-.6509-2.4258-1.7153-2.4258s-1.7.9619-1.7,2.4258c0,1.4482.6357,2.4092,1.7,2.4092S28.3408,10.0733,28.3408,8.6251Z" style="fill:#f29f05"/><path d="M33.3081,11.4786h-.0445l-.1479.7686H31.7705V1.8087h1.7v2.69L33.4262,5.712a3.3147,3.3147,0,0,1,2.1-.9023c1.8188,0,2.8686,1.4492,2.8686,3.6816,0,2.499-1.4936,3.9336-3.1055,3.9336A2.9035,2.9035,0,0,1,33.3081,11.4786Zm3.3266-2.957c0-1.4493-.4731-2.3067-1.5673-2.3067a2.3187,2.3187,0,0,0-1.5967.8125v3.3867a2.2669,2.2669,0,0,0,1.4638.6055C35.8955,11.02,36.6347,10.1622,36.6347,8.5216Z" style="fill:#f29f05"/><path d="M38.334,15.1007l.3252-1.2715a2.0915,2.0915,0,0,0,.621.1181c.65,0,.8282-.458.8282-1.3007V4.9874h1.7148v7.63c0,1.5371-.5913,2.6757-2.3061,2.6757A3.3152,3.3152,0,0,1,38.334,15.1007ZM39.916,2.755a1.06,1.06,0,0,1,2.1142,0,1.0619,1.0619,0,0,1-2.1142,0Z" style="fill:#f29f05"/><path d="M43.5088,8.6251A3.5332,3.5332,0,0,1,46.85,4.81c1.9668,0,3.0014,1.42,3.0014,3.4453a3.965,3.965,0,0,1-.0737.8281H45.1645a2.0782,2.0782,0,0,0,2.1441,2.0254,3.0342,3.0342,0,0,0,1.6855-.5322l.5767,1.0644a4.5762,4.5762,0,0,1-2.4839.7842A3.5007,3.5007,0,0,1,43.5088,8.6251ZM48.373,7.93c0-1.1241-.4878-1.8037-1.4785-1.8037A1.8232,1.8232,0,0,0,45.15,7.93Z" style="fill:#f29f05"/><path d="M51.0044,8.6251A3.5807,3.5807,0,0,1,54.6416,4.81a3.13,3.13,0,0,1,2.1289.8134l-.8281,1.1094A1.7724,1.7724,0,0,0,54.73,6.1993c-1.168,0-1.981.9619-1.981,2.4258,0,1.4482.7983,2.4092,1.937,2.4092a2.4219,2.4219,0,0,0,1.4932-.62l.6948,1.1231a3.6239,3.6239,0,0,1-2.3657.8877A3.454,3.454,0,0,1,51.0044,8.6251Z" style="fill:#f29f05"/><path d="M58.4111,9.793v-3.46H57.3764V5.0616L58.5,4.9874l.207-1.9815h1.4194V4.9874h1.8482V6.3331H60.1264v3.46c0,.8575.3252,1.2715,1.02,1.2715a2.08,2.08,0,0,0,.7544-.1631l.2954,1.2569a4.6426,4.6426,0,0,1-1.4786.2666C59.0322,12.4249,58.4111,11.36,58.4111,9.793Z" style="fill:#f29f05"/><path d="M62.6245,11.419l.7983-1.0937a3.228,3.228,0,0,0,2.0108.8125c.7837,0,1.1533-.3692,1.1533-.8721,0-.6064-.7837-.8721-1.5523-1.168-.9614-.3545-2.04-.9023-2.04-2.1142,0-1.2715,1.02-2.1738,2.6465-2.1738a3.9162,3.9162,0,0,1,2.41.873l-.7837,1.0342A2.7063,2.7063,0,0,0,65.67,6.0958c-.7246,0-1.065.3408-1.065.7988,0,.5772.7246.7988,1.5083,1.0791.9908.37,2.085.8428,2.085,2.2031,0,1.2422-.9907,2.2481-2.8242,2.2481A4.5936,4.5936,0,0,1,62.6245,11.419Z" style="fill:#f29f05"/></svg>