<?xml version="1.0" encoding="utf-8"?>
<!-- Generator: Adobe Illustrator 17.1.0, SVG Export Plug-In . SVG Version: 6.00 Build 0)  -->
<!DOCTYPE svg PUBLIC "-//W3C//DTD SVG 1.1//EN" "http://www.w3.org/Graphics/SVG/1.1/DTD/svg11.dtd">
<svg version="1.1" id="Layer_1" xmlns="http://www.w3.org/2000/svg" xmlns:xlink="http://www.w3.org/1999/xlink" x="0px" y="0px"
	 viewBox="0 0 184.5641 64" enable-background="new 0 0 184.5641 64" xml:space="preserve">
<path fill="#F1A01F" d="M44.6002,49.9428v-9.6447c0-1.9277-1.5628-3.4905-3.4905-3.4905h-2.6036
	c-1.9277,0-3.4905-1.5628-3.4905-3.4905v-2.5502c0-1.9278,1.5628-3.4905,3.4905-3.4905h12.2771
	c1.9278,0,3.4905,1.5628,3.4905,3.4905l-0.0001,29.2499c0,1.9923-1.666,3.5988-3.6552,3.487
	C22.4801,61.923,0.5005,48.4324,0.5005,32.0242c0-16.4082,21.9797-29.8988,50.118-31.4796c1.9892-0.1118,3.6552,1.4947,3.6552,3.487
	v0.5072c0,1.7496-1.2993,3.2187-3.0327,3.4566c-20.1283,2.7624-34.6402,11.7742-35.1133,23.7198c0,0-1.3981,14.5017,24.0302,21.5886
	C42.3868,53.925,44.6002,52.2567,44.6002,49.9428z"/>
<path fill="#F1A01F" d="M58.1147,60.0053c0,1.9976,1.6746,3.6077,3.6685,3.4865c21.0138-1.2775,35.1921-7.9964,42.8766-16.4209
	c0.8538-1.3092-1.046-0.1086-1.1385-0.0569c-10.6533,5.951-16.7046,8.3016-32.0287,9.1016
	c-2.0089,0.1049-3.7045-1.473-3.7045-3.4846V4.1166c0-1.8564-1.4515-3.3905-3.3055-3.4859c-0.8973-0.0462-1.8365-0.0859-2.747-0.119
	c-1.9778-0.0719-3.621,1.5091-3.621,3.4882L58.1147,60.0053z"/>
<path fill="#F1A01F" d="M87.6561,34.1836c0,2.708-0.6992,4.8462-2.0967,6.4155c-1.3979,1.5698-3.4087,2.354-6.0337,2.354
	s-4.6304-0.7842-6.0156-2.354c-1.3857-1.5693-2.0786-3.7075-2.0786-6.4155v-2.7314c0-2.7075,0.6929-4.8462,2.0786-6.4155
	c1.3853-1.5693,3.3906-2.3545,6.0156-2.3545s4.6357,0.7852,6.0337,2.3545c1.3975,1.5693,2.0967,3.708,2.0967,6.4155V34.1836z
	 M84.4476,34.1836v-2.7314c0-4.0015-1.6406-6.0024-4.9219-6.0024c-3.2573,0-4.8857,2.001-4.8857,6.0024v2.7314
	c0,4.002,1.6284,6.002,4.8857,6.002c1.6523,0,2.8857-0.521,3.7007-1.5635C84.0404,37.5801,84.4476,36.1006,84.4476,34.1836z"/>
<path fill="#F1A01F" d="M107.3802,34.0757c0,2.7798-0.6626,4.9541-1.9868,6.5234c-1.3252,1.5698-3.312,2.354-5.9614,2.354
	c-2.333,0-4.5698-0.2036-6.7085-0.6108c-0.3159-0.0479-0.5229-0.1313-0.6196-0.2515c-0.0972-0.1196-0.146-0.3115-0.146-0.5752
	V16.3564c0-0.4546,0.2188-0.6826,0.6563-0.6826h1.8599c0.1938,0,0.3579,0.0659,0.4922,0.1973
	c0.1333,0.1323,0.2002,0.2939,0.2002,0.4854v6.6851c1.3125-0.2393,2.7344-0.3594,4.2656-0.3594c2.6255,0,4.606,0.7549,5.9429,2.2646
	c1.3364,1.5093,2.0054,3.6899,2.0054,6.541V34.0757z M104.1717,34.0757v-2.5879c0-2.0127-0.3589-3.522-1.0752-4.5283
	c-0.7173-1.0063-1.939-1.5098-3.6646-1.5098c-1.9199,0-3.3423,0.0845-4.2656,0.2515v14.269
	c1.6528,0.1436,3.0747,0.2153,4.2656,0.2153c1.7256,0,2.9473-0.5029,3.6646-1.5093
	C103.8128,37.6699,104.1717,36.1367,104.1717,34.0757z"/>
<path fill="#F1A01F" d="M115.2914,45.002c0,1.7969-0.3711,3.0425-1.1123,3.7378c-0.7417,0.6948-1.8901,1.0425-3.4453,1.0425
	c-0.6563,0-1.3125-0.0483-1.9688-0.144c-0.4375-0.0718-0.6563-0.2637-0.6563-0.5747v-1.3301c0-0.3359,0.2554-0.5029,0.7656-0.5029
	h1.4946c0.6802,0,1.1362-0.144,1.3672-0.4316s0.3467-0.8867,0.3467-1.7969V23.6528c0-0.1919,0.0601-0.3594,0.1821-0.5034
	c0.1216-0.1436,0.2793-0.2158,0.4741-0.2158h1.896c0.4375,0,0.6563,0.2402,0.6563,0.7192V45.002z M115.3641,19.0879
	c0,0.1924-0.0728,0.354-0.2188,0.4854c-0.146,0.1318-0.3164,0.1978-0.5103,0.1978h-1.8599c-0.1948,0-0.3643-0.0659-0.5103-0.1978
	c-0.146-0.1313-0.2188-0.293-0.2188-0.4854v-2.9111c0-0.1914,0.0728-0.3594,0.2188-0.5029c0.146-0.144,0.3154-0.2158,0.5103-0.2158
	h1.8599c0.1938,0,0.3643,0.0718,0.5103,0.2158c0.146,0.1436,0.2188,0.3115,0.2188,0.5029V19.0879z"/>
<path fill="#F1A01F" d="M136.1458,33.0332c0,0.5273-0.2314,0.791-0.6929,0.791h-12.2139v0.5029c0,2.085,0.4131,3.5825,1.2397,4.4927
	c0.8262,0.9111,2.1021,1.3657,3.8281,1.3657c2.5762,0,4.7397-0.1313,6.4897-0.395h0.1821c0.3887,0,0.5835,0.168,0.5835,0.5029
	v1.2222c0,0.4556-0.2432,0.731-0.729,0.8267c-2.1392,0.4072-4.3149,0.6108-6.5264,0.6108c-1.1182,0-2.1455-0.1436-3.0806-0.4312
	c-0.936-0.2876-1.8047-0.7427-2.6069-1.3657s-1.4346-1.5151-1.896-2.6777c-0.4619-1.1621-0.6929-2.5459-0.6929-4.1514v-3.2344
	c0-2.6118,0.7051-4.6665,2.1147-6.1641s3.4028-2.2466,5.9795-2.2466c2.6006,0,4.5874,0.749,5.9609,2.2466
	c1.373,1.4976,2.0601,3.5522,2.0601,6.1641V33.0332z M132.9007,31.416v-0.3232c0-1.9888-0.3892-3.4263-1.1665-4.313
	c-0.7783-0.8862-1.9814-1.3301-3.6094-1.3301c-3.2573,0-4.8857,1.8813-4.8857,5.6431v0.3232H132.9007z"/>
<path fill="#F1A01F" d="M152.9168,41.7671c0,0.4312-0.2437,0.6953-0.7295,0.791c-1.458,0.2632-2.9775,0.395-4.5571,0.395
	c-2.4556,0-4.3633-0.7842-5.7241-2.354c-1.3618-1.5693-2.042-3.6958-2.042-6.3799V31.416c0-2.6831,0.6802-4.8101,2.042-6.3794
	c1.3608-1.5693,3.2686-2.3545,5.7241-2.3545c1.5796,0,3.0991,0.1318,4.5571,0.3955c0.292,0.0483,0.4858,0.1255,0.5835,0.2334
	c0.0967,0.1079,0.146,0.2939,0.146,0.5571v1.2939c0,0.3594-0.207,0.5391-0.6201,0.5391h-0.1455
	c-1.5073-0.167-3.0142-0.2515-4.521-0.2515c-3.0386,0-4.5576,1.9893-4.5576,5.9663v2.8032c0,3.978,1.519,5.9663,4.5576,5.9663
	c1.5068,0,3.0137-0.0835,4.521-0.2515h0.1455c0.4131,0,0.6201,0.1797,0.6201,0.5391V41.7671z"/>
<path fill="#F1A01F" d="M167.6463,42.1626c0,0.3359-0.2188,0.5391-0.6563,0.6108c-0.8022,0.1196-1.5923,0.1797-2.3701,0.1797
	c-1.7744,0-3.0444-0.3291-3.8101-0.9883c-0.7656-0.6587-1.1484-1.9346-1.1484-3.8276V25.5933l-3.5366-0.395
	c-0.4619-0.0479-0.6924-0.2637-0.6924-0.647v-0.9707c0-0.4312,0.2305-0.647,0.6924-0.647h3.5366v-3.522
	c0-0.4072,0.2188-0.647,0.6563-0.7188l1.896-0.2876h0.1094c0.3647,0,0.5469,0.2036,0.5469,0.6108v3.9175h3.9375
	c0.1943,0,0.3647,0.0723,0.5107,0.2158c0.1455,0.144,0.2188,0.3115,0.2188,0.5034v1.2217c0,0.1924-0.0732,0.3594-0.2188,0.5034
	c-0.146,0.1436-0.3164,0.2153-0.5107,0.2153H162.87v12.5439c0,0.9585,0.1333,1.5757,0.4009,1.8511s0.7896,0.4131,1.5679,0.4131
	h2.042c0.5103,0,0.7656,0.168,0.7656,0.5034V42.1626z"/>
<path fill="#F1A01F" d="M183.7245,37.7417c0,1.7734-0.6016,3.0854-1.8047,3.9355c-1.2031,0.8511-2.8745,1.2759-5.0132,1.2759
	c-2.3579,0-4.2783-0.1797-5.7607-0.5391c-0.5103-0.1196-0.7656-0.3594-0.7656-0.7188v-1.2578c0-0.3594,0.2188-0.5391,0.6563-0.5391
	h0.146c2.1387,0.2637,4.0469,0.395,5.7241,0.395c1.2397,0,2.1509-0.1914,2.7344-0.5747s0.875-1.0425,0.875-1.9771
	c0-0.5269-0.1948-1-0.5835-1.4194c-0.3887-0.4189-1.106-0.9404-2.1509-1.5635l-3.6821-2.1567
	c-2.4795-1.4854-3.7192-3.1987-3.7192-5.1396c0-3.1865,2.1997-4.7803,6.5991-4.7803c1.9443,0,3.8403,0.1563,5.688,0.4673
	c0.4614,0.0718,0.6924,0.3115,0.6924,0.7188v1.186c0,0.4077-0.2065,0.6113-0.6196,0.6113h-0.1094
	c-2.2603-0.1919-4.1445-0.2876-5.6514-0.2876c-1.1665,0-2.0234,0.1382-2.5703,0.4131c-0.5469,0.2759-0.8203,0.833-0.8203,1.6714
	c0,0.5034,0.1943,0.9526,0.5835,1.3477c0.3887,0.3955,1.0327,0.8569,1.9321,1.3838l3.6094,2.1206
	c1.4824,0.8628,2.5215,1.7134,3.1177,2.5518C183.4266,35.7056,183.7245,36.6636,183.7245,37.7417z"/>
</svg>
