<?xml version="1.0" encoding="utf-8"?>
<!-- Generator: Adobe Illustrator 17.1.0, SVG Export Plug-In . SVG Version: 6.00 Build 0)  -->
<!DOCTYPE svg PUBLIC "-//W3C//DTD SVG 1.1//EN" "http://www.w3.org/Graphics/SVG/1.1/DTD/svg11.dtd">
<svg version="1.1" id="Layer_1" xmlns="http://www.w3.org/2000/svg" xmlns:xlink="http://www.w3.org/1999/xlink" x="0px" y="0px"
	 viewBox="0 0 184.6 64" enable-background="new 0 0 184.6 64" xml:space="preserve">
<path fill="#F1A01F" d="M44.6,49.9v-9.6c0-1.9-1.6-3.5-3.5-3.5h-2.6c-1.9,0-3.5-1.6-3.5-3.5v-2.6c0-1.9,1.6-3.5,3.5-3.5h12.3
	c1.9,0,3.5,1.6,3.5,3.5l0,29.2c0,2-1.7,3.6-3.7,3.5C22.5,61.9,0.5,48.4,0.5,32c0-16.4,22-29.9,50.1-31.5c2-0.1,3.7,1.5,3.7,3.5v0.5
	c0,1.7-1.3,3.2-3,3.5c-20.1,2.8-34.6,11.8-35.1,23.7c0,0-1.4,14.5,24,21.6C42.4,53.9,44.6,52.3,44.6,49.9z"/>
<path fill="#F1A01F" d="M58.1,60c0,2,1.7,3.6,3.7,3.5c21-1.3,35.2-8,42.9-16.4c0.9-1.3-1-0.1-1.1-0.1c-10.7,6-16.7,8.3-32,9.1
	c-2,0.1-3.7-1.5-3.7-3.5V4.1c0-1.9-1.5-3.4-3.3-3.5c-0.9,0-1.8-0.1-2.7-0.1c-2-0.1-3.6,1.5-3.6,3.5L58.1,60z"/>
<path fill="#F1A01F" d="M87.7,34.2c0,2.7-0.7,4.8-2.1,6.4c-1.4,1.6-3.4,2.4-6,2.4s-4.6-0.8-6-2.4c-1.4-1.6-2.1-3.7-2.1-6.4v-2.7
	c0-2.7,0.7-4.8,2.1-6.4c1.4-1.6,3.4-2.4,6-2.4s4.6,0.8,6,2.4c1.4,1.6,2.1,3.7,2.1,6.4V34.2z M84.4,34.2v-2.7c0-4-1.6-6-4.9-6
	c-3.3,0-4.9,2-4.9,6v2.7c0,4,1.6,6,4.9,6c1.7,0,2.9-0.5,3.7-1.6C84,37.6,84.4,36.1,84.4,34.2z"/>
<path fill="#F1A01F" d="M107.4,34.1c0,2.8-0.7,5-2,6.5c-1.3,1.6-3.3,2.4-6,2.4c-2.3,0-4.6-0.2-6.7-0.6c-0.3,0-0.5-0.1-0.6-0.3
	C92,42,92,41.8,92,41.5V16.4c0-0.5,0.2-0.7,0.7-0.7h1.9c0.2,0,0.4,0.1,0.5,0.2c0.1,0.1,0.2,0.3,0.2,0.5V23c1.3-0.2,2.7-0.4,4.3-0.4
	c2.6,0,4.6,0.8,5.9,2.3c1.3,1.5,2,3.7,2,6.5V34.1z M104.2,34.1v-2.6c0-2-0.4-3.5-1.1-4.5c-0.7-1-1.9-1.5-3.7-1.5
	c-1.9,0-3.3,0.1-4.3,0.3V40c1.7,0.1,3.1,0.2,4.3,0.2c1.7,0,2.9-0.5,3.7-1.5C103.8,37.7,104.2,36.1,104.2,34.1z"/>
<path fill="#F1A01F" d="M115.3,45c0,1.8-0.4,3-1.1,3.7c-0.7,0.7-1.9,1-3.4,1c-0.7,0-1.3,0-2-0.1c-0.4-0.1-0.7-0.3-0.7-0.6v-1.3
	c0-0.3,0.3-0.5,0.8-0.5h1.5c0.7,0,1.1-0.1,1.4-0.4s0.3-0.9,0.3-1.8V23.7c0-0.2,0.1-0.4,0.2-0.5c0.1-0.1,0.3-0.2,0.5-0.2h1.9
	c0.4,0,0.7,0.2,0.7,0.7V45z M115.4,19.1c0,0.2-0.1,0.4-0.2,0.5c-0.1,0.1-0.3,0.2-0.5,0.2h-1.9c-0.2,0-0.4-0.1-0.5-0.2
	c-0.1-0.1-0.2-0.3-0.2-0.5v-2.9c0-0.2,0.1-0.4,0.2-0.5c0.1-0.1,0.3-0.2,0.5-0.2h1.9c0.2,0,0.4,0.1,0.5,0.2c0.1,0.1,0.2,0.3,0.2,0.5
	V19.1z"/>
<path fill="#F1A01F" d="M136.1,33c0,0.5-0.2,0.8-0.7,0.8h-12.2v0.5c0,2.1,0.4,3.6,1.2,4.5c0.8,0.9,2.1,1.4,3.8,1.4
	c2.6,0,4.7-0.1,6.5-0.4h0.2c0.4,0,0.6,0.2,0.6,0.5v1.2c0,0.5-0.2,0.7-0.7,0.8c-2.1,0.4-4.3,0.6-6.5,0.6c-1.1,0-2.1-0.1-3.1-0.4
	c-0.9-0.3-1.8-0.7-2.6-1.4s-1.4-1.5-1.9-2.7c-0.5-1.2-0.7-2.5-0.7-4.2v-3.2c0-2.6,0.7-4.7,2.1-6.2s3.4-2.2,6-2.2
	c2.6,0,4.6,0.7,6,2.2c1.4,1.5,2.1,3.6,2.1,6.2V33z M132.9,31.4v-0.3c0-2-0.4-3.4-1.2-4.3c-0.8-0.9-2-1.3-3.6-1.3
	c-3.3,0-4.9,1.9-4.9,5.6v0.3H132.9z"/>
<path fill="#F1A01F" d="M152.9,41.8c0,0.4-0.2,0.7-0.7,0.8c-1.5,0.3-3,0.4-4.6,0.4c-2.5,0-4.4-0.8-5.7-2.4c-1.4-1.6-2-3.7-2-6.4
	v-2.8c0-2.7,0.7-4.8,2-6.4c1.4-1.6,3.3-2.4,5.7-2.4c1.6,0,3.1,0.1,4.6,0.4c0.3,0,0.5,0.1,0.6,0.2c0.1,0.1,0.1,0.3,0.1,0.6v1.3
	c0,0.4-0.2,0.5-0.6,0.5h-0.1c-1.5-0.2-3-0.3-4.5-0.3c-3,0-4.6,2-4.6,6v2.8c0,4,1.5,6,4.6,6c1.5,0,3-0.1,4.5-0.3h0.1
	c0.4,0,0.6,0.2,0.6,0.5V41.8z"/>
<path fill="#F1A01F" d="M167.6,42.2c0,0.3-0.2,0.5-0.7,0.6c-0.8,0.1-1.6,0.2-2.4,0.2c-1.8,0-3-0.3-3.8-1c-0.8-0.7-1.1-1.9-1.1-3.8
	V25.6l-3.5-0.4c-0.5,0-0.7-0.3-0.7-0.6v-1c0-0.4,0.2-0.6,0.7-0.6h3.5v-3.5c0-0.4,0.2-0.6,0.7-0.7l1.9-0.3h0.1c0.4,0,0.5,0.2,0.5,0.6
	v3.9h3.9c0.2,0,0.4,0.1,0.5,0.2c0.1,0.1,0.2,0.3,0.2,0.5v1.2c0,0.2-0.1,0.4-0.2,0.5c-0.1,0.1-0.3,0.2-0.5,0.2h-3.9v12.5
	c0,1,0.1,1.6,0.4,1.9s0.8,0.4,1.6,0.4h2c0.5,0,0.8,0.2,0.8,0.5V42.2z"/>
<path fill="#F1A01F" d="M183.7,37.7c0,1.8-0.6,3.1-1.8,3.9c-1.2,0.9-2.9,1.3-5,1.3c-2.4,0-4.3-0.2-5.8-0.5c-0.5-0.1-0.8-0.4-0.8-0.7
	v-1.3c0-0.4,0.2-0.5,0.7-0.5h0.1c2.1,0.3,4,0.4,5.7,0.4c1.2,0,2.2-0.2,2.7-0.6s0.9-1,0.9-2c0-0.5-0.2-1-0.6-1.4
	c-0.4-0.4-1.1-0.9-2.2-1.6l-3.7-2.2c-2.5-1.5-3.7-3.2-3.7-5.1c0-3.2,2.2-4.8,6.6-4.8c1.9,0,3.8,0.2,5.7,0.5c0.5,0.1,0.7,0.3,0.7,0.7
	v1.2c0,0.4-0.2,0.6-0.6,0.6h-0.1c-2.3-0.2-4.1-0.3-5.7-0.3c-1.2,0-2,0.1-2.6,0.4c-0.5,0.3-0.8,0.8-0.8,1.7c0,0.5,0.2,1,0.6,1.3
	c0.4,0.4,1,0.9,1.9,1.4l3.6,2.1c1.5,0.9,2.5,1.7,3.1,2.6C183.4,35.7,183.7,36.7,183.7,37.7z"/>
</svg>
