<?xml version="1.0" encoding="utf-8"?>
<!-- Generator: Adobe Illustrator 19.1.0, SVG Export Plug-In . SVG Version: 6.00 Build 0)  -->
<svg version="1.1" id="Layer_1" xmlns="http://www.w3.org/2000/svg" xmlns:xlink="http://www.w3.org/1999/xlink" x="0px" y="0px"
	 viewBox="0 0 90.708664 22.677166" enable-background="new 0 0 90.708664 22.677166" xml:space="preserve">
<polygon fill="#F29F05" points="12.998981,17.105768 16.663229,10.759041 15.441837,8.643465 12.998943,12.874617 9.334697,6.52789 
	19.106123,6.52789 20.327551,4.412314 5.670412,4.412314 "/>
<polygon fill="#F29F05" points="25.213264,17.105898 23.991837,14.990322 19.106123,14.990322 23.991837,6.52789 
	22.770407,4.412314 15.441837,17.105898 "/>
<g>
	<path fill="#F29F05" d="M30.642153,7.568156c1.81885,0,3.459963,1.389648,3.459963,3.815429
		c0,2.40918-1.641113,3.799805-3.459963,3.799805c-1.803711,0-3.444824-1.390625-3.444824-3.799805
		C27.197329,8.957804,28.838442,7.568156,30.642153,7.568156z M30.642153,13.792765c1.064453,0,1.715334-0.960938,1.715334-2.40918
		c0-1.463867-0.650881-2.425781-1.715334-2.425781s-1.700195,0.961914-1.700195,2.425781
		C28.941957,12.831827,29.5777,13.792765,30.642153,13.792765z"/>
	<path fill="#F29F05" d="M35.787174,4.567179h1.700195v2.69043l-0.044434,1.21289
		c0.606445-0.532226,1.360352-0.902343,2.099609-0.902343c1.818848,0,2.868652,1.449218,2.868652,3.68164
		c0,2.499023-1.493652,3.933594-3.105469,3.933594c-0.665039,0-1.375-0.325195-1.980957-0.916992h-0.044434l-0.147949,0.739258
		h-1.345215V4.567179z M38.951237,13.778116c0.960938,0,1.700195-0.857422,1.700195-2.498047
		c0-1.449219-0.473145-2.306641-1.567383-2.306641c-0.532227,0-1.034668,0.265625-1.59668,0.8125v3.386719
		C38.004948,13.616007,38.522526,13.778116,38.951237,13.778116z"/>
	<path fill="#F29F05" d="M44.140202,7.74589h1.714844v7.629882c0,1.537109-0.591309,2.675781-2.306152,2.675781
		c-0.532715,0-0.902344-0.088867-1.183105-0.192383l0.325195-1.271484c0.192383,0.05957,0.399414,0.118164,0.621094,0.118164
		c0.650391,0,0.828125-0.458008,0.828125-1.300781V7.74589z M43.947819,5.513468c0-0.577148,0.458496-0.976563,1.049805-0.976563
		c0.606445,0,1.064453,0.399414,1.064453,0.976563c0,0.561523-0.458008,0.960938-1.064453,0.960938
		C44.406315,6.474406,43.947819,6.074992,43.947819,5.513468z"/>
	<path fill="#F29F05" d="M50.881901,7.568156c1.966309,0,3.001465,1.419921,3.001465,3.445312
		c0,0.325195-0.029297,0.621094-0.07373,0.798828h-4.613281c0.147949,1.31543,0.976074,2.054688,2.144043,2.054688
		c0.621094,0,1.15332-0.192383,1.685547-0.532227l0.57666,1.064453c-0.694824,0.458984-1.567383,0.78418-2.483887,0.78418
		c-2.01123,0-3.578125-1.405273-3.578125-3.799805C47.540592,9.017374,49.181705,7.568156,50.881901,7.568156z M52.40485,10.732218
		c0-1.15332-0.487793-1.847656-1.478516-1.847656c-0.857422,0-1.59668,0.635742-1.744629,1.847656H52.40485z"/>
	<path fill="#F29F05" d="M58.672916,7.568156c0.931152,0,1.641113,0.370117,2.128906,0.842773l-0.812988,1.080078
		c-0.384766-0.34082-0.769043-0.533203-1.227539-0.533203c-1.167969,0-1.980957,0.961914-1.980957,2.425781
		c0,1.448242,0.79834,2.40918,1.937012,2.40918c0.591309,0,1.09375-0.294922,1.493164-0.620117l0.709473,1.079102
		c-0.679688,0.606445-1.552246,0.931641-2.380371,0.931641c-1.981445,0-3.503906-1.390625-3.503906-3.799805
		C55.035709,8.957804,56.735905,7.568156,58.672916,7.568156z"/>
	<path fill="#F29F05" d="M62.590397,9.091593h-1.034668V7.820109l1.123535-0.074219l0.207031-1.981445h1.41943V7.74589h1.848145
		v1.345703h-1.848145v3.459961c0,0.857422,0.325195,1.271484,1.02002,1.271484c0.251465,0,0.547363-0.074219,0.754395-0.163086
		l0.29541,1.256836c-0.398926,0.132813-0.901855,0.266602-1.478516,0.266602c-1.685543,0-2.306637-1.064453-2.306637-2.631836
		V9.091593z"/>
	<path fill="#F29F05" d="M67.750061,13.08378c0.650391,0.50293,1.271484,0.8125,2.010742,0.8125
		c0.783691,0,1.15332-0.369141,1.15332-0.87207c0-0.606445-0.783691-0.87207-1.552246-1.167969
		c-0.961426-0.354492-2.040527-0.902344-2.040527-2.114258c0-1.271484,1.02002-2.173828,2.646484-2.173828
		c1.005371,0,1.818848,0.414063,2.410156,0.873046l-0.783691,1.03418c-0.50293-0.369141-1.02002-0.621094-1.59668-0.621094
		c-0.724609,0-1.064941,0.34082-1.064941,0.798828c0,0.561523,0.724609,0.798828,1.508301,1.079102
		c0.990723,0.370117,2.084961,0.842773,2.084961,2.203125c0,1.242188-0.990723,2.248047-2.824219,2.248047
		c-0.990723,0-2.040527-0.428711-2.75-1.005859L67.750061,13.08378z"/>
</g>
</svg>
