<?xml version="1.0" encoding="utf-8"?>
<!-- Generator: Adobe Illustrator 19.1.0, SVG Export Plug-In . SVG Version: 6.00 Build 0)  -->
<svg version="1.1" id="Layer_1" xmlns="http://www.w3.org/2000/svg" xmlns:xlink="http://www.w3.org/1999/xlink" x="0px" y="0px"
	 viewBox="0 0 412.0441 102.7842" enable-background="new 0 0 412.0441 102.7842" xml:space="preserve">
<g>
	<path fill="#F1A01F" d="M136.1317,38.7355c7.0234,0,13.2793,5.4883,13.2793,15.1093c0,9.5039-6.2558,14.9921-13.2793,14.9921
		s-13.2793-5.4883-13.2793-14.9921C122.8525,44.2238,129.1083,38.7355,136.1317,38.7355z M136.1317,64.8253
		c4.959,0,8.2637-4.4297,8.2637-10.9804c0-6.6094-3.3047-11.0937-8.2637-11.0937c-4.8984,0-8.2617,4.4844-8.2617,11.0937
		C127.87,60.3956,131.2333,64.8253,136.1317,64.8253z"/>
	<path fill="#F1A01F" d="M156.9559,26.1066h4.8398v11.4492l-0.1191,5.1953c2.5977-2.3047,5.7851-4.0156,8.9726-4.0156
		c7.4355,0,11.3906,5.7265,11.3906,14.5781c0,9.7968-5.8437,15.5234-12.3945,15.5234c-2.6563,0-5.666-1.2969-8.2031-3.5391h-0.1777
		l-0.414,2.832h-3.8945V26.1066z M168.8191,64.7667c4.7207,0,8.2031-4.3086,8.2031-11.3945c0-6.3125-2.125-10.5625-7.5547-10.5625
		c-2.4199,0-4.957,1.3555-7.6719,3.8945V61.755C164.3328,63.9386,166.9305,64.7667,168.8191,64.7667z"/>
	<path fill="#F1A01F" d="M189.7605,39.4464h4.8398V71.376c0,5.8437-2.125,9.5586-7.8496,9.5586c-1.7715,0-3.2461-0.3516-4.25-0.7656
		l1.0039-3.6601c0.709,0.2383,1.7109,0.4727,2.7148,0.4727c2.834,0,3.541-2.125,3.541-5.6055V39.4464z M188.8757,30.4152
		c0-1.8906,1.4746-3.1289,3.3633-3.1289c1.8301,0,3.3066,1.2383,3.3066,3.1289c0,1.8281-1.4766,3.1289-3.3066,3.1289
		C190.3503,33.5441,188.8757,32.2433,188.8757,30.4152z"/>
	<path fill="#F1A01F" d="M215.0182,38.7355c7.3183,0,11.4492,5.2539,11.4492,13.457c0,1.0039-0.0586,1.9492-0.1758,2.6562h-19.3593
		c0.3535,6.1992,4.0723,10.0937,9.5605,10.0937c2.7148,0,5.0176-0.8867,7.1426-2.2422l1.7109,3.1875
		c-2.4785,1.5938-5.5488,2.9492-9.4433,2.9492c-7.6718,0-13.7519-5.6055-13.7519-14.9921
		C202.1511,44.462,208.4655,38.7355,215.0182,38.7355z M222.2174,51.6612c0-5.8437-2.5957-9.0898-7.082-9.0898
		c-4.0137,0-7.6719,3.3086-8.2617,9.0898H222.2174z"/>
	<path fill="#F1A01F" d="M245.2252,38.7355c3.7773,0,6.4336,1.5937,8.3808,3.4258l-2.4199,3.125
		c-1.7109-1.4726-3.4824-2.5351-5.7832-2.5351c-5.1933,0-8.9707,4.4844-8.9707,11.0937c0,6.5508,3.5996,10.9804,8.8515,10.9804
		c2.7168,0,5.0176-1.3594,6.7285-2.8945l2.1836,3.1875c-2.5957,2.3008-5.9004,3.7187-9.3242,3.7187
		c-7.6133,0-13.457-5.4883-13.457-14.9921C231.4147,44.2238,237.8482,38.7355,245.2252,38.7355z"/>
	<path fill="#F1A01F" d="M261.272,43.3995h-4.25v-3.6601l4.4863-0.293l0.5898-8.0273h4.0722v8.0273h7.7324v3.9531h-7.7324v15.9335
		c0,3.543,1.1211,5.5508,4.4277,5.5508c1.002,0,2.3008-0.4141,3.2461-0.7695l0.9434,3.6601
		c-1.5938,0.5312-3.541,1.0625-5.3125,1.0625c-6.1367,0-8.2031-3.8945-8.2031-9.5625V43.3995z"/>
	<path fill="#F1A01F" d="M279.6196,61.6378c2.4785,2.0039,5.0175,3.4219,8.4394,3.4219c3.7773,0,5.666-2.0078,5.666-4.4844
		c0-2.9531-3.4219-4.25-6.5508-5.4297c-4.0722-1.4766-8.5586-3.4258-8.5586-8.2656c0-4.6015,3.6602-8.1445,9.8574-8.1445
		c3.5996,0,6.7285,1.4766,8.9121,3.2461l-2.3027,3.0703c-1.9472-1.4766-4.0117-2.5391-6.5508-2.5391
		c-3.5996,0-5.2519,1.9492-5.2519,4.1328c0,2.6562,3.1269,3.7187,6.373,4.957c4.1328,1.5352,8.7363,3.2461,8.7363,8.6758
		c0,4.6641-3.7187,8.5586-10.5058,8.5586c-4.0722,0-7.9687-1.7109-10.6836-3.9531L279.6196,61.6378z"/>
</g>
<polyline fill="#F1A01F" points="94.6428,68.524 114.4443,68.4785 109.4714,77.0875 79.8014,77.0874 109.4718,25.6967 
	109.4718,25.6967 114.4183,34.2621 109.4739,42.8305 94.6405,68.5227 "/>
<polyline fill="#F1A01F" points="69.9086,59.9527 79.7942,42.827 84.7392,51.3925 69.904,77.0875 40.2336,25.6968 99.5745,25.6968 
	94.6294,34.2618 55.0729,34.2618 69.9063,59.9541 "/>
</svg>
